<?xml version="1.0" encoding="utf-8"?>
<!-- Generator: Adobe Illustrator 17.0.0, SVG Export Plug-In . SVG Version: 6.00 Build 0)  -->
<!DOCTYPE svg PUBLIC "-//W3C//DTD SVG 1.1//EN" "http://www.w3.org/Graphics/SVG/1.1/DTD/svg11.dtd">
<svg version="1.1" id="Layer_1" xmlns="http://www.w3.org/2000/svg" xmlns:xlink="http://www.w3.org/1999/xlink" x="0px" y="0px"
	 width="11.656px" height="11.656px" viewBox="0 0 11.656 11.656" enable-background="new 0 0 11.656 11.656" xml:space="preserve">
<path fill="#8F9CA3" d="M10.656,4.422H7.234V1c0-0.552-0.448-1-1-1H5.422c-0.552,0-1,0.448-1,1v3.422H1c-0.552,0-1,0.448-1,1v0.812
	c0,0.552,0.448,1,1,1h3.422v3.422c0,0.552,0.448,1,1,1h0.812c0.552,0,1-0.448,1-1V7.234h3.422c0.552,0,1-0.448,1-1V5.422
	C11.656,4.87,11.209,4.422,10.656,4.422z"/>
</svg>
