<?xml version="1.0" encoding="utf-8"?>
<!-- Generator: Adobe Illustrator 17.0.0, SVG Export Plug-In . SVG Version: 6.00 Build 0)  -->
<!DOCTYPE svg PUBLIC "-//W3C//DTD SVG 1.1//EN" "http://www.w3.org/Graphics/SVG/1.1/DTD/svg11.dtd">
<svg version="1.1" id="Layer_1" xmlns="http://www.w3.org/2000/svg" xmlns:xlink="http://www.w3.org/1999/xlink" x="0px" y="0px"
	 width="296.5px" height="522px" viewBox="0 0 296.5 522" enable-background="new 0 0 296.5 522" xml:space="preserve">
<g id="bvvbhM_1_">
	<g>
		<path fill="#EFC84B" d="M148.254,381.029c-14.993,0-29.986,0.006-44.979-0.002c-18.674-0.01-27.674-8.112-30.238-26.702
			c-3.122-22.636-7.285-45.142-16.142-66.282c-5.894-14.069-12.909-27.782-20.624-40.95c-13.929-23.775-24.822-48.546-29.603-75.835
			C-6.638,95.315,45.644,20.29,121.496,6.601c79.596-14.365,153.849,37.014,168.236,116.508
			c5.711,31.556-0.035,61.718-12.514,90.691c-5.247,12.183-11.521,24.054-18.512,35.332c-19.331,31.183-30.045,65.29-34.451,101.318
			c-2.85,23.304-13.823,31.769-35.026,30.707C175.603,380.474,161.914,381.029,148.254,381.029z"/>
	</g>
</g>
<g id="bvvbhM_2_">
	<g>
		<path fill="#EFC84B" d="M148.46,388.003c13.991,0,27.982-0.048,41.972,0.013c15.347,0.066,26.793,18.516,19.807,32.292
			c-2.237,4.411-2.754,8.295-0.645,12.757c3.475,7.351,3.867,14.643-0.543,21.949c-0.871,1.442-0.676,3.821-0.323,5.643
			c0.597,3.089,1.737,6.07,2.602,9.11c3.193,11.22-1.876,20.406-13.152,23.46c-5.129,1.389-10.344,2.539-15.582,3.432
			c-6.069,1.035-10.676,3.757-14.303,8.935c-11.103,15.85-28.956,15.819-40.035-0.057c-3.508-5.026-7.971-7.73-13.839-8.813
			c-5.556-1.025-11.115-2.161-16.551-3.681c-10.648-2.978-15.728-12.217-12.826-22.818c0.483-1.764,0.953-3.546,1.632-5.239
			c1.883-4.692,2.146-9-0.738-13.67c-3.238-5.244-2.085-11.016,0.362-16.324c2.458-5.33,2.397-9.978-0.324-15.519
			c-6.603-13.446,5.077-31.379,20.014-31.455C120.145,387.946,134.302,388.003,148.46,388.003z"/>
	</g>
</g>
</svg>
