<?xml version="1.0" encoding="utf-8"?>
<!-- Generator: Adobe Illustrator 17.0.0, SVG Export Plug-In . SVG Version: 6.00 Build 0)  -->
<!DOCTYPE svg PUBLIC "-//W3C//DTD SVG 1.1//EN" "http://www.w3.org/Graphics/SVG/1.1/DTD/svg11.dtd">
<svg version="1.1" id="Layer_1" xmlns="http://www.w3.org/2000/svg" xmlns:xlink="http://www.w3.org/1999/xlink" x="0px" y="0px"
	 width="296.5px" height="522px" viewBox="0 0 296.5 522" enable-background="new 0 0 296.5 522" xml:space="preserve">
<path fill="#26B779" d="M148,119C69.023,119,5,183.023,5,262s64.023,143,143,143s143-64.023,143-143S226.977,119,148,119z
	 M148,334.269c-39.913,0-72.269-32.356-72.269-72.269s32.356-72.269,72.269-72.269s72.269,32.356,72.269,72.269
	S187.913,334.269,148,334.269z"/>
<path fill="#26B779" d="M148,198.957c-34.818,0-63.043,28.225-63.043,63.043s28.225,63.043,63.043,63.043
	s63.043-28.225,63.043-63.043S182.818,198.957,148,198.957z M148,286.602c-13.587,0-24.602-11.015-24.602-24.602
	c0-13.587,11.015-24.602,24.602-24.602s24.602,11.015,24.602,24.602C172.602,275.587,161.587,286.602,148,286.602z"/>
</svg>
