<?xml version="1.0" encoding="utf-8"?>
<!-- Generator: Adobe Illustrator 17.0.0, SVG Export Plug-In . SVG Version: 6.00 Build 0)  -->
<!DOCTYPE svg PUBLIC "-//W3C//DTD SVG 1.1//EN" "http://www.w3.org/Graphics/SVG/1.1/DTD/svg11.dtd">
<svg version="1.1" id="Layer_1" xmlns="http://www.w3.org/2000/svg" xmlns:xlink="http://www.w3.org/1999/xlink" x="0px" y="0px"
	 width="184.751px" height="258.093px" viewBox="0 0 184.751 258.093" enable-background="new 0 0 184.751 258.093"
	 xml:space="preserve">
<path fill="none" stroke="#FFFFFF" stroke-width="3" stroke-miterlimit="10" d="M108.731,221.592c0,0,3.74-21.797,7.027-29.668
	c6.894-11.919,13.605-19.867,17.801-30.137c4.196-10.27,5.865-36.251,5.599-41.065s-6.683-12.823-8.96-9.534
	c-1.293,1.868-2.34,15.844-4.543,24.162c-1.676,6.33-5.059,7.241-5.53,6.578c-1.089-1.533,17.439-91.372,15.654-99.139
	c-1.501-6.529-9.826-7.654-11.554-4.845c-1.856,3.018-3.555,10.91-6.45,21.879c-4.642,17.587-10.63,38.897-10.63,38.897
	s-4.05-1.523-8.604-1.324c-3.385,0.148-7.049,1.247-9.534,4.632c-3.454-2.524-6.634-3.182-9.358-2.915
	c-5.719,0.56-9.426,5.195-9.426,5.195s-5.849-3.359-10.172-2.631c-3.287,0.555-6.265,2.762-6.818,5.33
	c-1.682,7.81-8.051,45.568-7.648,52.067s5.08,15.381,5.218,19.146s-5.218,26.696-5.218,26.696"/>
</svg>
